<svg width="24" height="24" viewBox="0 0 24 24" fill="none" xmlns="http://www.w3.org/2000/svg">
<path d="M5.6001 11.6V6.96985C5.6001 6.44033 5.6001 6.17557 5.64448 5.95503C5.83987 4.98419 6.6499 4.22478 7.68546 4.04161C7.92071 4 8.20312 4 8.76794 4C9.01541 4 9.13915 4 9.25806 4.01043C9.77075 4.05537 10.2571 4.24422 10.6535 4.55231C10.7455 4.62377 10.8329 4.7058 11.0079 4.86985L11.3601 5.2C11.8822 5.68947 12.1432 5.9342 12.4559 6.09726C12.6276 6.18683 12.8097 6.25756 12.9987 6.30807C13.3428 6.4 13.7119 6.4 14.4503 6.4H14.6894C16.3742 6.4 17.2165 6.4 17.764 6.86168C17.8144 6.90415 17.8623 6.94908 17.9076 6.9963C18.4001 7.50961 18.4001 8.29932 18.4001 9.87874V11.6" stroke="white" stroke-width="1.2"/>
<path d="M10.3999 16H13.5999" stroke="white" stroke-width="1.2" stroke-linecap="round"/>
<path d="M5.18144 16.3871C4.79971 14.2142 4.60885 13.1278 5.07131 12.3464C5.18933 12.147 5.33487 11.9665 5.50331 11.8107C6.16341 11.2 7.23037 11.2 9.36429 11.2H14.6358C16.7697 11.2 17.8367 11.2 18.4968 11.8107C18.6652 11.9665 18.8108 12.147 18.9288 12.3464C19.3912 13.1278 19.2004 14.2142 18.8187 16.3871C18.5439 17.9513 18.4065 18.7334 17.9304 19.2524C17.8069 19.3871 17.6687 19.5064 17.5186 19.6081C16.94 20 16.172 20 14.6358 20H9.36429C7.82813 20 7.06005 20 6.48151 19.6081C6.33141 19.5064 6.19321 19.3871 6.0697 19.2524C5.59364 18.7334 5.45624 17.9513 5.18144 16.3871Z" stroke="white" stroke-width="1.2"/>
</svg>
