<svg width="24" height="24" viewBox="0 0 24 24" fill="none" xmlns="http://www.w3.org/2000/svg">
<path d="M4.80005 12C4.80005 15.017 4.80005 18.1255 5.85446 19.0627C6.90888 20 8.60594 20 12 20C15.3942 20 17.0912 20 18.1456 19.0627C19.2 18.1255 19.2 15.017 19.2 12" stroke="#1B1A1C" stroke-width="1.2"/>
<path d="M14.1283 13.7615L19.0864 12.2741C19.4151 12.1755 19.5794 12.1262 19.7011 12.0284C19.8074 11.943 19.8901 11.8319 19.9413 11.7056C20 11.5609 20 11.3893 20 11.0461C20 9.69623 20 9.02128 19.7362 8.50615C19.5067 8.05795 19.1421 7.69329 18.6939 7.46378C18.1787 7.20001 17.5038 7.20001 16.1539 7.20001H7.84612C6.49622 7.20001 5.82127 7.20001 5.30614 7.46378C4.85794 7.69329 4.49327 8.05795 4.26377 8.50615C4 9.02128 4 9.69623 4 11.0461C4 11.3893 4 11.5609 4.05869 11.7056C4.10995 11.8319 4.19263 11.943 4.2989 12.0284C4.42059 12.1262 4.58495 12.1755 4.91365 12.2741L9.87175 13.7615" stroke="#1B1A1C" stroke-width="1.2"/>
<path d="M9.73682 5.6C10.0663 4.66785 10.9553 4 12.0003 4C13.0452 4 13.9342 4.66785 14.2637 5.6" stroke="#1B1A1C" stroke-width="1.2" stroke-linecap="round"/>
<path d="M13.6 12.3999H10.4C10.1791 12.3999 10 12.579 10 12.7999V14.5291C10 14.6927 10.0996 14.8397 10.2514 14.9005L10.8115 15.1245C11.5745 15.4297 12.4255 15.4297 13.1885 15.1245L13.7486 14.9005C13.9004 14.8397 14 14.6927 14 14.5291V12.7999C14 12.579 13.8209 12.3999 13.6 12.3999Z" stroke="#1B1A1C" stroke-width="1.2" stroke-linecap="round"/>
</svg>
