<svg width="22" height="22" viewBox="0 0 22 22" fill="none" xmlns="http://www.w3.org/2000/svg">
<path fill-rule="evenodd" clip-rule="evenodd" d="M8.94358 4.25H13.0564C14.8942 4.24998 16.3498 4.24997 17.489 4.40313C18.6614 4.56076 19.6104 4.89288 20.3588 5.64124C21.1071 6.38961 21.4392 7.33855 21.5969 8.51098C21.75 9.65019 21.75 11.1058 21.75 12.9436V13.0564C21.75 14.8942 21.75 16.3498 21.5969 17.489C21.4392 18.6614 21.1071 19.6104 20.3588 20.3588C19.6104 21.1071 18.6614 21.4392 17.489 21.5969C16.3498 21.75 14.8942 21.75 13.0564 21.75H8.94359C7.10583 21.75 5.65019 21.75 4.51098 21.5969C3.33856 21.4392 2.38961 21.1071 1.64124 20.3588C0.89288 19.6104 0.560763 18.6614 0.403135 17.489C0.249972 16.3498 0.249984 14.8942 0.25 13.0564V12.9436C0.249984 11.1058 0.249972 9.65019 0.403135 8.51098C0.560763 7.33855 0.89288 6.38961 1.64124 5.64124C2.38961 4.89288 3.33856 4.56076 4.51098 4.40313C5.65019 4.24997 7.10582 4.24998 8.94358 4.25ZM4.71085 5.88976C3.70476 6.02502 3.12511 6.27869 2.7019 6.7019C2.50952 6.89429 2.35217 7.119 2.22505 7.4014C4.05211 8.58755 5.25261 9.35275 6.26347 9.85777C6.32993 9.51157 6.63442 9.25 7 9.25C7.41421 9.25 7.75 9.58579 7.75 10V10.4579C9.86944 11.0975 12.1306 11.0975 14.25 10.458V10C14.25 9.58579 14.5858 9.25 15 9.25C15.3656 9.25 15.6701 9.51161 15.7365 9.85784C16.7474 9.35284 17.9479 8.58764 19.775 7.40148C19.6479 7.11904 19.4905 6.89431 19.2981 6.7019C18.8749 6.27869 18.2952 6.02502 17.2892 5.88976C16.2615 5.75159 14.9068 5.75 13 5.75H9C7.09318 5.75 5.73851 5.75159 4.71085 5.88976ZM20.1397 8.95311C18.2527 10.1759 16.9585 10.9851 15.75 11.5046V12C15.75 12.4142 15.4142 12.75 15 12.75C14.5913 12.75 14.2589 12.423 14.2502 12.0164C12.1199 12.578 9.8801 12.578 7.74983 12.0164C7.74112 12.423 7.40875 12.75 7 12.75C6.58579 12.75 6.25 12.4142 6.25 12V11.5045C5.0415 10.985 3.74736 10.1758 1.86034 8.95302C1.75136 9.94942 1.75 11.2393 1.75 13C1.75 14.9068 1.75159 16.2615 1.88976 17.2892C2.02502 18.2952 2.27869 18.8749 2.7019 19.2981C3.12511 19.7213 3.70476 19.975 4.71085 20.1102C5.73851 20.2484 7.09318 20.25 9 20.25H13C14.9068 20.25 16.2615 20.2484 17.2892 20.1102C18.2952 19.975 18.8749 19.7213 19.2981 19.2981C19.7213 18.8749 19.975 18.2952 20.1102 17.2892C20.2484 16.2615 20.25 14.9068 20.25 13C20.25 11.2394 20.2486 9.9495 20.1397 8.95311Z" fill="#9747FF"/>
<path fill-rule="evenodd" clip-rule="evenodd" d="M10.9999 1.75C10.0215 1.75 9.18702 2.37503 8.87778 3.24993C8.73975 3.64047 8.31126 3.84517 7.92072 3.70713C7.53018 3.56909 7.32549 3.1406 7.46353 2.75007C7.97796 1.29459 9.366 0.25 10.9999 0.25C12.6339 0.25 14.0219 1.29459 14.5364 2.75007C14.6744 3.1406 14.4697 3.56909 14.0792 3.70713C13.6886 3.84517 13.2601 3.64047 13.1221 3.24993C12.8129 2.37503 11.9784 1.75 10.9999 1.75Z" fill="#9747FF"/>
</svg>
