<svg width="16" height="22" viewBox="0 0 16 22" fill="none" xmlns="http://www.w3.org/2000/svg">
<path fill-rule="evenodd" clip-rule="evenodd" d="M8 1.75C4.54822 1.75 1.75 4.54822 1.75 8C1.75 11.4518 4.54822 14.25 8 14.25C11.4518 14.25 14.25 11.4518 14.25 8C14.25 4.54822 11.4518 1.75 8 1.75ZM0.25 8C0.25 3.71979 3.71979 0.25 8 0.25C12.2802 0.25 15.75 3.71979 15.75 8C15.75 10.2254 14.812 12.2317 13.3098 13.6452C13.3359 13.6939 13.357 13.7462 13.3722 13.8017L14.0217 16.1709C14.3252 17.2776 14.5696 18.169 14.6807 18.8607C14.7897 19.5387 14.812 20.2371 14.4326 20.8048C14.2166 21.128 13.9233 21.3927 13.5766 21.5692C12.9468 21.8899 12.2599 21.7318 11.6446 21.4995C11.017 21.2625 10.2288 20.8518 9.26073 20.3474L9.2141 20.3231C8.48986 19.9457 8.30076 19.861 8.1191 19.8417C8.03988 19.8332 7.96012 19.8332 7.8809 19.8417C7.69924 19.861 7.51014 19.9457 6.7859 20.3231L6.73928 20.3474C5.77122 20.8518 4.98303 21.2625 4.35539 21.4995C3.74006 21.7318 3.0532 21.8899 2.42341 21.5692C2.07674 21.3927 1.78341 21.128 1.56741 20.8048C1.188 20.2371 1.21031 19.5387 1.31926 18.8607C1.43043 18.169 1.67482 17.2776 1.97827 16.1709L2.6278 13.8017C2.64302 13.7462 2.66409 13.6939 2.69015 13.6452C1.18798 12.2317 0.25 10.2254 0.25 8ZM3.96016 14.6151L3.43755 16.5213C3.11851 17.685 2.89691 18.4973 2.80026 19.0987C2.69985 19.7235 2.7747 19.9117 2.81454 19.9713C2.89239 20.0878 2.99326 20.1761 3.10403 20.2325C3.12687 20.2441 3.27015 20.3058 3.82563 20.0961C4.35876 19.8949 5.06684 19.5274 6.09276 18.9928C6.12765 18.9747 6.1621 18.9567 6.19616 18.9389C6.76425 18.6421 7.22111 18.4035 7.72196 18.3501C7.90684 18.3304 8.09316 18.3304 8.27804 18.3501C8.77889 18.4035 9.23575 18.6421 9.80385 18.9389C9.8379 18.9567 9.87235 18.9747 9.90724 18.9928C10.9332 19.5274 11.6412 19.8949 12.1744 20.0961C12.7299 20.3058 12.8731 20.2441 12.896 20.2325C13.0067 20.1761 13.1076 20.0878 13.1855 19.9713C13.2253 19.9117 13.3002 19.7235 13.1997 19.0987C13.1031 18.4973 12.8815 17.685 12.5625 16.5213L12.0398 14.6151C10.8635 15.335 9.4802 15.75 8 15.75C6.5198 15.75 5.13652 15.335 3.96016 14.6151Z" fill="#9747FF"/>
</svg>
