<svg width="22" height="12" viewBox="0 0 22 12" fill="none" xmlns="http://www.w3.org/2000/svg">
<path fill-rule="evenodd" clip-rule="evenodd" d="M0.606035 0.580867C1.11366 0.363312 1.70154 0.598463 1.9191 1.10609L0.999954 1.50001C1.9191 1.10609 1.91924 1.10642 1.9191 1.10609L1.91858 1.10489C1.9183 1.10424 1.91851 1.10472 1.91858 1.10489L1.9225 1.11376C1.92651 1.12277 1.93339 1.13809 1.94319 1.15929C1.96278 1.20171 1.99397 1.26759 2.03696 1.35358C2.12302 1.5257 2.25594 1.77747 2.43737 2.08228C2.80137 2.6938 3.35439 3.50825 4.10775 4.31956C4.28532 4.51079 4.47324 4.7011 4.67173 4.88806C4.68003 4.8956 4.68823 4.90331 4.69633 4.91117C6.18102 6.30141 8.25227 7.50001 11 7.50001C12.2089 7.50001 13.2783 7.2692 14.2209 6.8982C15.4469 6.41563 16.4745 5.68913 17.3156 4.89972C18.2652 4.00839 18.9627 3.05005 19.4232 2.31101C19.6526 1.94292 19.8207 1.63319 19.9299 1.4191C19.9844 1.31217 20.0241 1.22944 20.0491 1.17562C20.0617 1.14872 20.0706 1.12908 20.0758 1.11729L20.0808 1.10609C20.2985 0.59874 20.8864 0.363369 21.3939 0.580867C21.9015 0.798423 22.1367 1.3863 21.9191 1.89393L21 1.50001C21.9191 1.89393 21.9192 1.8937 21.9191 1.89393L21.9169 1.89895L21.9134 1.90718L21.9019 1.93302C21.8924 1.95435 21.879 1.98378 21.8618 2.02072C21.8274 2.09458 21.7774 2.19856 21.7115 2.32775C21.5799 2.58591 21.384 2.94609 21.1206 3.36869C20.718 4.01484 20.152 4.81621 19.4096 5.6243L20.2071 6.42174C20.5976 6.81227 20.5976 7.44543 20.2071 7.83596C19.8165 8.22648 19.1834 8.22648 18.7928 7.83596L17.9527 6.99578C17.3884 7.45152 16.757 7.88138 16.0558 8.25221L16.8381 9.45463C17.1393 9.91754 17.0083 10.537 16.5453 10.8382C16.0824 11.1394 15.463 11.0083 15.1618 10.5454L14.1763 9.03088C13.4973 9.23902 12.772 9.38653 12 9.45568V11C12 11.5523 11.5522 12 11 12C10.4477 12 9.99995 11.5523 9.99995 11V9.45582C9.22531 9.38662 8.50014 9.23881 7.82334 9.03128L6.83814 10.5454C6.53693 11.0083 5.91748 11.1394 5.45457 10.8382C4.99165 10.537 4.86056 9.91754 5.16177 9.45463L5.94417 8.25218C5.24405 7.88164 4.61245 7.45179 4.04746 6.99556L3.20706 7.83596C2.81654 8.22648 2.18337 8.22648 1.79285 7.83596C1.40232 7.44543 1.40232 6.81227 1.79285 6.42174L2.59029 5.6243C1.74529 4.70455 1.12772 3.79225 0.718786 3.10525C0.509597 2.75381 0.353449 2.4587 0.248105 2.24801C0.195395 2.14259 0.15529 2.05808 0.127521 1.99796C0.113634 1.96789 0.10282 1.9439 0.0950486 1.92643L0.0856639 1.90514L0.082672 1.89826L0.0815994 1.89577L0.0811689 1.89477C0.080983 1.89434 0.0808088 1.89393 0.999954 1.50001L0.0811689 1.89477C-0.136387 1.38714 0.0984047 0.798423 0.606035 0.580867Z" fill="#9747FF"/>
</svg>
