<svg width="24" height="24" viewBox="0 0 24 24" fill="none" xmlns="http://www.w3.org/2000/svg">
<path d="M9.84444 22.9998C11.7615 22.9993 13.6264 22.3758 15.1583 21.2233C16.6902 20.0707 17.806 18.4516 18.3377 16.6097C18.8694 14.7679 18.7881 12.8032 18.1061 11.0115C17.4241 9.21992 16.1784 7.69845 14.5565 6.67638C12.9347 5.6543 11.0246 5.18697 9.11406 5.3448C7.20353 5.50263 5.39604 6.27708 3.96391 7.55145C2.53177 8.82582 1.55257 10.5311 1.17384 12.4103C0.795099 14.2896 1.03734 16.241 1.86406 17.9706C2.05418 18.3686 2.1205 18.8173 2.00775 19.2418L1.64521 20.598C1.58007 20.8415 1.58013 21.0978 1.64538 21.3413C1.71063 21.5847 1.83877 21.8068 2.01694 21.985C2.19512 22.1633 2.41705 22.2916 2.66047 22.357C2.90389 22.4224 3.16023 22.4226 3.40377 22.3576L4.75999 21.994C5.18728 21.8889 5.63807 21.9398 6.0311 22.1377C7.18616 22.6903 8.47938 22.9998 9.84555 22.9998H9.84444Z" stroke="#9747FF" stroke-width="1.5"/>
<path d="M18.6867 14.7125L18.9055 14.6164C19.3056 14.434 19.7544 14.3655 20.18 14.4793L20.7061 14.6197C20.9496 14.6848 21.2059 14.6848 21.4494 14.6195C21.6928 14.5543 21.9149 14.4261 22.0931 14.248C22.2714 14.0698 22.3997 13.8479 22.4651 13.6044C22.5305 13.361 22.5307 13.1047 22.4657 12.8611L22.3243 12.335C22.2104 11.9095 22.2801 11.4607 22.4624 11.0606C22.84 10.1958 23.0435 9.26505 23.0613 8.32159C23.0792 7.37812 22.911 6.44038 22.5665 5.5619C22.2219 4.68342 21.7077 3.88141 21.0532 3.20166C20.3987 2.52191 19.6167 1.97772 18.7519 1.60018C17.8871 1.22264 16.9564 1.01914 16.0129 1.00129C15.0694 0.983435 14.1317 1.15159 13.2532 1.49614C12.3747 1.8407 11.5727 2.35491 10.893 3.00942C10.2132 3.66393 9.66903 4.44591 9.29149 5.31073" stroke="#9747FF" stroke-width="1.5"/>
<path d="M5.99518 14.1576H6.00623M9.85383 14.1576H9.86378M13.7125 14.1576H13.7224" stroke="#9747FF" stroke-width="2" stroke-linecap="round" stroke-linejoin="round"/>
</svg>
