<svg width="22" height="20" viewBox="0 0 22 20" fill="none" xmlns="http://www.w3.org/2000/svg">
<path fill-rule="evenodd" clip-rule="evenodd" d="M4.62436 2.67423C2.96537 3.43256 1.75 5.23626 1.75 7.38713C1.75 9.58453 2.64922 11.2783 3.93829 12.7298C5.00072 13.9261 6.28684 14.9177 7.54113 15.8846C7.83904 16.1143 8.13515 16.3426 8.42605 16.5719C8.95208 16.9866 9.42132 17.3506 9.87361 17.6149C10.3261 17.8793 10.6904 18 11 18C11.3096 18 11.6739 17.8793 12.1264 17.6149C12.5787 17.3506 13.0479 16.9866 13.574 16.5719C13.8649 16.3426 14.161 16.1143 14.4589 15.8846C15.7132 14.9177 16.9993 13.9261 18.0617 12.7298C19.3508 11.2783 20.25 9.58453 20.25 7.38713C20.25 5.23626 19.0346 3.43256 17.3756 2.67423C15.7639 1.93751 13.5983 2.13261 11.5404 4.27077C11.399 4.41766 11.2039 4.50067 11 4.50067C10.7961 4.50067 10.601 4.41766 10.4596 4.27077C8.40166 2.13261 6.23607 1.93751 4.62436 2.67423ZM11 2.70885C8.68795 0.640275 6.09896 0.350903 4.00076 1.30999C1.78471 2.32296 0.25 4.67506 0.25 7.38713C0.25 10.0527 1.3605 12.0861 2.81672 13.7258C3.98287 15.039 5.41022 16.138 6.67083 17.1086C6.95659 17.3286 7.23378 17.5421 7.49742 17.7499C8.00965 18.1537 8.55954 18.5843 9.11682 18.91C9.67386 19.2355 10.3096 19.5 11 19.5C11.6904 19.5 12.3261 19.2355 12.8832 18.91C13.4405 18.5843 13.9903 18.1537 14.5026 17.7499C14.7662 17.5421 15.0434 17.3286 15.3292 17.1086C16.5898 16.138 18.0171 15.039 19.1833 13.7258C20.6395 12.0861 21.75 10.0527 21.75 7.38713C21.75 4.67506 20.2153 2.32296 17.9992 1.30999C15.901 0.350903 13.3121 0.640275 11 2.70885Z" fill="white"/>
</svg>
