<svg width="18" height="22" viewBox="0 0 18 22" fill="none" xmlns="http://www.w3.org/2000/svg">
<path fill-rule="evenodd" clip-rule="evenodd" d="M17.5276 9.37338C17.1569 8.73142 16.4776 8.52039 15.8292 8.42971C15.1755 8.33831 14.3006 8.33833 13.2424 8.33837L13.1822 8.33837C12.552 8.33837 12.1401 8.33215 11.84 8.29043C11.5685 8.25269 11.4822 8.19683 11.4454 8.16425C11.4184 8.13614 11.3704 8.07042 11.3376 7.83344C11.2991 7.55403 11.2974 7.17089 11.2974 6.55682V6.18233C11.2974 4.59481 11.2974 3.32307 11.1752 2.41639C11.0606 1.56532 10.788 0.609478 9.84377 0.320133C8.91617 0.0358697 8.13816 0.645422 7.53341 1.27384C6.88918 1.94328 6.12389 2.97873 5.16571 4.27517L2.02872 8.51948C1.41838 9.34519 0.909595 10.0335 0.606442 10.6027C0.302556 11.1733 0.0813984 11.8507 0.418472 12.5266L0.419646 12.5291L0.4232 12.5363L0.427238 12.5443L0.431212 12.5519L0.435561 12.5601L0.439982 12.5683L0.444169 12.5758L0.448594 12.5836L0.452649 12.5905L0.454136 12.5929C0.821639 13.2294 1.498 13.4522 2.15236 13.5521C2.82668 13.6551 3.72646 13.6617 4.81771 13.6617C5.45431 13.6617 5.86024 13.6631 6.15835 13.7011C6.42171 13.7347 6.50047 13.7865 6.53423 13.8163C6.56414 13.8475 6.61658 13.9205 6.65356 14.1661C6.69588 14.4471 6.70252 14.8362 6.70251 15.4432L6.7025 15.8176C6.70245 17.4051 6.70242 18.6769 6.82458 19.5836C6.93926 20.4347 7.21185 21.3905 8.15603 21.6799C9.08364 21.9641 9.86166 21.3546 10.4664 20.7262C11.1107 20.0567 11.876 19.0213 12.8342 17.7248L15.9335 13.5315C16.5643 12.678 17.0831 11.965 17.3891 11.3716C17.6885 10.7909 17.8973 10.1095 17.5633 9.43982L17.5622 9.4374L17.5586 9.43013L17.5546 9.4221L17.5506 9.41441L17.5462 9.4062L17.5418 9.39803L17.5376 9.39047L17.5331 9.38268L17.5291 9.37572L17.5276 9.37338ZM8.61423 2.31395C8.04627 2.90414 7.3385 3.85906 6.33476 5.21711L3.27262 9.36015C2.61493 10.25 2.17489 10.8487 1.93038 11.3078C1.81136 11.5313 1.76668 11.6723 1.75396 11.7576C1.74611 11.8103 1.7509 11.8341 1.75718 11.8493C1.78137 11.885 1.88638 11.9941 2.37875 12.0693C2.91665 12.1514 3.69008 12.1617 4.81771 12.1617L4.86368 12.1617C5.44081 12.1616 5.94368 12.1616 6.34806 12.2132C6.78124 12.2684 7.21153 12.394 7.5678 12.7291L7.57363 12.7345L7.57934 12.7401C7.92935 13.0837 8.07162 13.5097 8.13683 13.9427C8.19915 14.3566 8.20252 14.8656 8.20251 15.4433L8.2025 15.7528C8.20248 17.4197 8.20416 18.5892 8.31115 19.3833C8.36443 19.7787 8.43609 20.0106 8.50471 20.1401C8.55614 20.2372 8.58574 20.2436 8.59405 20.2453L8.59555 20.2457L8.59706 20.2462C8.60753 20.2498 8.64439 20.2625 8.75807 20.2053C8.90007 20.1339 9.10291 19.9798 9.3856 19.6861C9.95358 19.0959 10.6614 18.1409 11.6651 16.7829L14.7273 12.6399C15.3812 11.7551 15.8169 11.1476 16.0558 10.6842C16.2606 10.2871 16.2383 10.1526 16.2246 10.1169C16.2022 10.0841 16.1013 9.98236 15.6214 9.91526C15.0843 9.84015 14.3158 9.83837 13.1822 9.83837C12.5793 9.83837 12.0565 9.83496 11.6334 9.77614C11.1966 9.7154 10.7653 9.58392 10.4121 9.25175L10.4063 9.24627L10.4006 9.24066C10.0473 8.89397 9.91112 8.46852 9.85175 8.03865C9.79729 7.64433 9.79733 7.15601 9.79738 6.60517L9.79738 6.24712C9.79738 4.58023 9.79568 3.41077 9.68868 2.61671C9.6354 2.22131 9.56373 1.98938 9.49511 1.85986C9.44368 1.7628 9.41408 1.75644 9.40577 1.75466L9.40427 1.7543L9.40276 1.7538C9.39229 1.75018 9.35543 1.73746 9.24175 1.79466C9.09975 1.86611 8.89691 2.0202 8.61423 2.31395Z" fill="#FF9F2E"/>
</svg>
