<svg width="16" height="16" viewBox="0 0 16 16" fill="none" xmlns="http://www.w3.org/2000/svg">
<path d="M5.55057 9.1499L14.0006 0.699902C14.2006 0.499902 14.4382 0.399902 14.7136 0.399902C14.9889 0.399902 15.2262 0.499902 15.4256 0.699902C15.6249 0.899902 15.7249 1.13724 15.7256 1.4119C15.7262 1.68657 15.6262 1.92424 15.4256 2.1249L6.25057 11.2999C6.05057 11.4999 5.81724 11.5999 5.55057 11.5999C5.2839 11.5999 5.05057 11.4999 4.85057 11.2999L0.575571 7.0249C0.375571 6.8249 0.279571 6.58757 0.287571 6.3129C0.295571 6.03824 0.399904 5.80057 0.600571 5.5999C0.801237 5.39924 1.0389 5.29924 1.31357 5.2999C1.58824 5.30057 1.82557 5.40057 2.02557 5.5999L5.55057 9.1499ZM2.00057 15.9999C1.71724 15.9999 1.4799 15.9039 1.28857 15.7119C1.09724 15.5199 1.00124 15.2826 1.00057 14.9999C0.999904 14.7172 1.0959 14.4799 1.28857 14.2879C1.48124 14.0959 1.71857 13.9999 2.00057 13.9999H14.0006C14.2839 13.9999 14.5216 14.0959 14.7136 14.2879C14.9056 14.4799 15.0012 14.7172 15.0006 14.9999C14.9999 15.2826 14.9039 15.5202 14.7126 15.7129C14.5212 15.9056 14.2839 16.0012 14.0006 15.9999H2.00057Z" fill="white"/>
</svg>
