<svg width="70" height="16" viewBox="0 0 70 16" fill="none" xmlns="http://www.w3.org/2000/svg">
<path fill-rule="evenodd" clip-rule="evenodd" d="M69.9984 10.1521C69.9972 4.35014 69.9815 4.17957 69.3213 2.85406C68.6152 1.43496 67.1128 0.42809 65.4803 0.280021C64.1815 0.161566 63.0743 0.444673 61.7369 1.23714L61.3646 1.45747L60.9297 1.13171C59.9454 0.392554 58.1056 0.0608796 56.8068 0.387816C54.9755 0.849792 53.6839 2.14924 53.0851 4.13218C52.9791 4.48637 52.8911 4.98269 52.8911 5.235C52.8911 5.75502 52.7092 5.73844 52.5899 5.20657C52.4622 4.63088 51.4237 3.18573 50.5887 2.42169C49.6947 1.60198 48.4755 0.932708 47.3489 0.641308C46.3128 0.3736 44.514 0.368863 43.4935 0.631834C41.7044 1.09262 40.0393 2.22032 39.1465 3.57663L38.6971 4.2613L38.2634 3.68087C37.1923 2.24638 35.5839 1.12105 33.908 0.635387C33.0272 0.380708 31.0574 0.346355 30.12 0.57142C28.8863 0.866374 27.5272 1.59961 26.5899 2.47736C24.7778 4.17246 23.961 6.38757 24.2236 8.88698C24.4839 11.3591 25.6007 13.1585 27.7104 14.51C29.2007 15.4636 30.5863 15.819 32.3983 15.7147C33.6513 15.6425 34.4983 15.402 35.6742 14.786C36.5297 14.3371 37.8851 13.1372 38.3128 12.4489C38.4791 12.1824 38.6429 11.9633 38.6791 11.9621C38.714 11.9597 38.8321 12.1054 38.9417 12.2843C39.6766 13.4925 41.4261 14.8453 42.9309 15.3688C44.0911 15.7728 46.1887 15.8699 47.3489 15.5738C49.3104 15.0727 51.3128 13.4902 52.2068 11.7323C52.4502 11.2525 52.6502 10.7645 52.6502 10.646C52.6502 10.5276 52.6971 10.4044 52.7538 10.3689C52.8116 10.3345 52.8538 10.4778 52.849 10.6887C52.8441 10.8984 52.8526 12.0711 52.8658 13.2947L52.8911 15.5181L54.6682 15.4861L56.4453 15.453L56.5056 10.3594C56.5478 6.8306 56.6092 5.17104 56.708 4.95545C56.9502 4.42359 57.4333 4.14048 58.0972 4.14048C58.5911 4.14048 58.7514 4.19852 59.0345 4.47571C59.2213 4.65931 59.4333 5.01942 59.5056 5.27528C59.5911 5.57497 59.6369 7.46789 59.6381 10.6259V15.5122H63.2369L63.2755 10.389C63.3092 5.75384 63.3333 5.22908 63.5261 4.88201C63.8128 4.36791 64.2454 4.1085 64.8189 4.1085C65.3923 4.1085 65.8261 4.36791 66.1116 4.88201C66.3044 5.22908 66.3285 5.75147 66.361 10.389L66.3972 15.5122H69.9996V10.1521H69.9984ZM35.4574 9.67826C34.9574 10.6792 34.0031 11.4859 32.9429 11.8022C31.5646 12.2144 30.2537 11.9147 29.1706 10.9422C26.8525 8.85855 27.5706 5.25396 30.5236 4.14285C30.8212 4.03032 31.3236 3.98412 31.9983 4.00662C32.8634 4.03505 33.1224 4.09428 33.6682 4.38687C34.4128 4.78488 35.108 5.51337 35.5092 6.31413C35.7381 6.77137 35.7899 7.06514 35.7911 7.93815C35.7935 8.86803 35.7513 9.09072 35.4574 9.67826ZM47.1008 11.615C46.4839 11.9218 46.2682 11.9656 45.3718 11.9656C44.4755 11.9656 44.2489 11.9182 43.6682 11.6375C42.8381 11.2371 42.0827 10.4541 41.661 9.55862C41.4044 9.01373 41.3465 8.71759 41.3526 7.99738C41.3706 6.1021 42.4345 4.6676 44.2646 4.07296C45.808 3.57189 47.555 4.15706 48.5694 5.51574C49.1393 6.27978 49.361 6.95497 49.3658 7.93815C49.373 9.52901 48.5249 10.9055 47.1008 11.615Z" fill="#A97CFF"/>
<path fill-rule="evenodd" clip-rule="evenodd" d="M-0.000366211 7.83143C-0.000366211 11.9667 0.0405977 15.3664 0.0899953 15.3865C0.139393 15.4066 0.952647 15.4066 1.89723 15.3865L3.6141 15.351V9.55851H10.2406V12.0757C10.243 13.4604 10.2755 14.7824 10.3141 15.0134L10.3852 15.4339L12.1201 15.428L13.8551 15.422V7.87052L13.8563 0.318997H10.3623V2.73312C10.3623 4.061 10.3286 5.31307 10.2876 5.51681L10.2129 5.88639H3.62132L3.5888 3.13231L3.55626 0.378224L1.77915 0.345057L0.00204395 0.31189V7.83024" fill="#FFE577"/>
<path fill-rule="evenodd" clip-rule="evenodd" d="M14.5387 0.385445C14.4231 0.499162 14.4436 15.1438 14.5604 15.3238C14.6339 15.4376 15.0869 15.4672 16.3954 15.4423L18.1327 15.4091L18.193 13.6809L18.2532 11.9526L20.352 13.6512L22.452 15.3499H28.2327L27.5195 14.8595C26.9448 14.465 23.8303 12.0391 22.4339 10.8983L22.1339 10.6531L22.6628 10.3381C23.6978 9.72209 23.6737 9.77184 23.6749 8.18217C23.6761 6.51195 23.8749 5.64249 24.5532 4.33237L25.0134 3.44396L24.7291 3.02936C23.84 1.73465 22.4436 0.781083 20.9954 0.479022C20.1484 0.302524 14.7014 0.221976 14.5375 0.38426M18.1725 4.21273C18.1508 4.2767 18.1484 5.07627 18.1689 5.98956L18.205 7.6503L19.1327 7.64794C20.7279 7.6432 21.6869 6.98458 21.6857 5.8948C21.6857 4.68774 20.8761 4.10494 19.1966 4.1002C18.6556 4.09902 18.1942 4.14995 18.1725 4.21392" fill="#FFE577"/>
</svg>
