<svg width="22" height="22" viewBox="0 0 22 22" fill="none" xmlns="http://www.w3.org/2000/svg">
<path fill-rule="evenodd" clip-rule="evenodd" d="M11 0.25C11.4142 0.25 11.75 0.585786 11.75 1V3C11.75 3.41421 11.4142 3.75 11 3.75C10.5858 3.75 10.25 3.41421 10.25 3V1C10.25 0.585786 10.5858 0.25 11 0.25ZM2.66865 2.71609C2.94815 2.41039 3.42255 2.38915 3.72825 2.66865L5.95026 4.70024C6.25596 4.97974 6.2772 5.45413 5.9977 5.75983C5.7182 6.06553 5.2438 6.08677 4.9381 5.80727L2.71609 3.77569C2.41039 3.49619 2.38915 3.02179 2.66865 2.71609ZM19.3314 2.71609C19.6109 3.02179 19.5896 3.49619 19.2839 3.77569L17.0619 5.80727C16.7562 6.08677 16.2818 6.06553 16.0023 5.75983C15.7228 5.45413 15.744 4.97974 16.0497 4.70024L18.2718 2.66865C18.5775 2.38915 19.0518 2.41039 19.3314 2.71609ZM11 6.75C8.65279 6.75 6.75 8.65279 6.75 11C6.75 13.3472 8.65279 15.25 11 15.25C13.3472 15.25 15.25 13.3472 15.25 11C15.25 8.65279 13.3472 6.75 11 6.75ZM5.25 11C5.25 7.82436 7.82436 5.25 11 5.25C14.1756 5.25 16.75 7.82436 16.75 11C16.75 14.1756 14.1756 16.75 11 16.75C7.82436 16.75 5.25 14.1756 5.25 11ZM0.25 11C0.25 10.5858 0.585786 10.25 1 10.25H3C3.41421 10.25 3.75 10.5858 3.75 11C3.75 11.4142 3.41421 11.75 3 11.75H1C0.585786 11.75 0.25 11.4142 0.25 11ZM18.25 11C18.25 10.5858 18.5858 10.25 19 10.25H21C21.4142 10.25 21.75 10.5858 21.75 11C21.75 11.4142 21.4142 11.75 21 11.75H19C18.5858 11.75 18.25 11.4142 18.25 11ZM16.0255 16.0252C16.3184 15.7323 16.7933 15.7323 17.0862 16.0252L19.3082 18.2475C19.6011 18.5404 19.601 19.0153 19.3081 19.3082C19.0152 19.6011 18.5403 19.601 18.2475 19.3081L16.0255 17.0858C15.7326 16.7929 15.7326 16.3181 16.0255 16.0252ZM5.97467 16.0253C6.26756 16.3182 6.26756 16.7931 5.97467 17.086L3.75244 19.3082C3.45955 19.6011 2.98468 19.6011 2.69178 19.3082C2.39889 19.0153 2.39889 18.5404 2.69178 18.2476L4.91401 16.0253C5.2069 15.7324 5.68177 15.7324 5.97467 16.0253ZM11 18.25C11.4142 18.25 11.75 18.5858 11.75 19V21C11.75 21.4142 11.4142 21.75 11 21.75C10.5858 21.75 10.25 21.4142 10.25 21V19C10.25 18.5858 10.5858 18.25 11 18.25Z" fill="#9747FF"/>
</svg>
