<svg width="22" height="22" viewBox="0 0 22 22" fill="none" xmlns="http://www.w3.org/2000/svg">
<path fill-rule="evenodd" clip-rule="evenodd" d="M11.0002 0.25C9.17243 0.25 7.66129 0.410989 6.4984 0.607195L6.36355 0.629829C5.35333 0.798933 4.51366 0.939486 3.85712 1.74808C3.43608 2.26664 3.30023 2.82706 3.26891 3.4531L2.77686 3.61712C2.31373 3.77147 1.90781 3.90675 1.58577 4.05656C1.23762 4.21852 0.91857 4.42714 0.674663 4.76555C0.430756 5.10396 0.333749 5.47262 0.290204 5.85411C0.249924 6.20701 0.249961 6.63488 0.250003 7.12304L0.250007 7.26827C0.249995 7.67008 0.249985 8.02497 0.27965 8.32179C0.311799 8.64348 0.382993 8.95621 0.560832 9.25844C0.73867 9.56067 0.977476 9.77478 1.24307 9.9591C1.48813 10.1292 1.79836 10.3015 2.14962 10.4966L4.79078 11.964C5.33018 13.0252 6.07115 13.9713 7.09017 14.6548C7.97721 15.2497 9.04179 15.6232 10.3028 15.723C10.2687 15.8087 10.25 15.9022 10.25 16V17.75H8.81981C7.98562 17.75 7.26739 18.3388 7.10379 19.1568L6.88515 20.25H5C4.58579 20.25 4.25 20.5858 4.25 21C4.25 21.4142 4.58579 21.75 5 21.75H17C17.4142 21.75 17.75 21.4142 17.75 21C17.75 20.5858 17.4142 20.25 17 20.25H15.1149L14.8962 19.1568C14.7326 18.3388 14.0144 17.75 13.1802 17.75H11.75V16C11.75 15.9022 11.7313 15.8087 11.6972 15.723C12.9583 15.6233 14.023 15.2498 14.9101 14.6548C15.9292 13.9713 16.6703 13.025 17.2097 11.9637L19.8503 10.4966C20.2016 10.3015 20.5118 10.1292 20.7569 9.9591C21.0225 9.77478 21.2613 9.56067 21.4391 9.25844C21.617 8.95621 21.6882 8.64348 21.7203 8.32179C21.75 8.02499 21.75 7.67012 21.75 7.26834L21.75 7.12306C21.75 6.63488 21.75 6.20701 21.7098 5.85411C21.6662 5.47262 21.5692 5.10396 21.3253 4.76555C21.0814 4.42714 20.7623 4.21852 20.4142 4.05656C20.0921 3.90675 19.6862 3.77147 19.2231 3.61712L18.7314 3.45322C18.7001 2.82713 18.5643 2.26668 18.1432 1.74808C17.4866 0.939487 16.647 0.798933 15.6368 0.629829L15.5019 0.607195C14.339 0.410989 12.8279 0.25 11.0002 0.25ZM13.5852 20.25L13.4253 19.451C13.402 19.3341 13.2994 19.25 13.1802 19.25H8.81981C8.70064 19.25 8.59804 19.3341 8.57467 19.451L8.41486 20.25H13.5852ZM3.28849 5.02772L3.3021 5.02318C3.37367 6.54348 3.5454 8.22376 3.97298 9.79369L2.90729 9.20162C2.51814 8.98542 2.27447 8.84906 2.09829 8.72679C1.93588 8.61407 1.88298 8.54762 1.85363 8.49774C1.82428 8.44786 1.79187 8.36934 1.77221 8.17263C1.75089 7.95925 1.75002 7.68002 1.75001 7.23484L1.75001 7.16231C1.74999 6.62323 1.75111 6.28191 1.78053 6.02422C1.80775 5.7857 1.85231 5.69703 1.89154 5.6426C1.93077 5.58817 2.0008 5.51786 2.21847 5.4166C2.45362 5.3072 2.77708 5.19819 3.28849 5.02772ZM18.6982 5.0233C18.6266 6.54349 18.4549 8.22364 18.0274 9.79346L19.0927 9.20162C19.4818 8.98542 19.7255 8.84906 19.9017 8.72679C20.0641 8.61407 20.117 8.54762 20.1463 8.49774C20.1757 8.44786 20.2081 8.36934 20.2277 8.17263C20.2491 7.95925 20.2499 7.68002 20.25 7.23484L20.25 7.16231C20.25 6.62323 20.2488 6.28191 20.2194 6.02422C20.1922 5.7857 20.1477 5.69703 20.1084 5.6426C20.0692 5.58817 19.9992 5.51786 19.7815 5.4166C19.5463 5.3072 19.2229 5.19819 18.7115 5.02772L18.6982 5.0233ZM6.74796 2.08629C7.83319 1.90319 9.26079 1.75 11.0002 1.75C12.7395 1.75 14.1671 1.90319 15.2524 2.08629C16.4593 2.28992 16.7128 2.3661 16.9787 2.69358C17.2407 3.01632 17.2656 3.32156 17.2118 4.67672C17.1222 6.93537 16.8242 9.37273 15.9015 11.2264C15.446 12.1414 14.8505 12.8887 14.0746 13.409C13.3037 13.9261 12.3092 14.25 11.0002 14.25C9.69109 14.25 8.69656 13.9261 7.92569 13.409C7.14983 12.8887 6.55432 12.1414 6.09884 11.2264C5.1761 9.37273 4.87815 6.93537 4.78848 4.67672C4.73468 3.32156 4.75956 3.01632 5.02161 2.69358C5.28751 2.3661 5.54104 2.28992 6.74796 2.08629Z" fill="#9747FF"/>
</svg>
