<svg width="24" height="24" viewBox="0 0 24 24" fill="none" xmlns="http://www.w3.org/2000/svg">
<path fill-rule="evenodd" clip-rule="evenodd" d="M11.0248 2H12.9752C14.6715 1.99999 16.0152 1.99997 17.0668 2.14245C18.149 2.28908 19.025 2.59803 19.7158 3.29418C20.4066 3.99033 20.7131 4.87307 20.8586 5.9637C21 7.02343 21 8.37751 21 10.0871V13.9129C21 15.6225 21 16.9766 20.8586 18.0363C20.7131 19.1269 20.4066 20.0097 19.7158 20.7058C19.025 21.402 18.149 21.7109 17.0668 21.8575C16.0152 22 14.6715 22 12.9751 22H11.0249C9.32846 22 7.98479 22 6.93321 21.8575C5.85097 21.7109 4.97502 21.402 4.28422 20.7058C3.59343 20.0097 3.28686 19.1269 3.14136 18.0363C2.99997 16.9766 2.99999 15.6225 3 13.9129V10.0871C2.99999 8.37751 2.99997 7.02343 3.14136 5.9637C3.28686 4.87307 3.59343 3.99033 4.28422 3.29418C4.97502 2.59803 5.85097 2.28908 6.93321 2.14245C7.98479 1.99997 9.32845 1.99999 11.0248 2ZM7.11771 3.52536C6.18901 3.65119 5.65395 3.88716 5.2633 4.28084C4.87264 4.67452 4.63848 5.21373 4.51362 6.14963C4.38609 7.10559 4.38462 8.36575 4.38462 10.1395V13.8605C4.38462 15.6343 4.38609 16.8944 4.51362 17.8504C4.63848 18.7863 4.87264 19.3255 5.2633 19.7192C5.65395 20.1128 6.18901 20.3488 7.11771 20.4746C8.06632 20.6032 9.31678 20.6046 11.0769 20.6046H12.9231C14.6832 20.6046 15.9337 20.6032 16.8823 20.4746C17.811 20.3488 18.346 20.1128 18.7367 19.7192C19.1274 19.3255 19.3615 18.7863 19.4864 17.8504C19.6139 16.8944 19.6154 15.6343 19.6154 13.8605V10.1395C19.6154 8.36575 19.6139 7.10559 19.4864 6.14963C19.3615 5.21373 19.1274 4.67452 18.7367 4.28084C18.346 3.88716 17.811 3.65119 16.8823 3.52536C15.9337 3.39683 14.6832 3.39535 12.9231 3.39535H11.0769C9.31678 3.39535 8.06632 3.39683 7.11771 3.52536ZM7.61538 8.27907C7.61538 7.89375 7.92534 7.5814 8.30769 7.5814H15.6923C16.0747 7.5814 16.3846 7.89375 16.3846 8.27907C16.3846 8.66438 16.0747 8.97674 15.6923 8.97674H8.30769C7.92534 8.97674 7.61538 8.66438 7.61538 8.27907ZM7.61538 12C7.61538 11.6147 7.92534 11.3023 8.30769 11.3023H15.6923C16.0747 11.3023 16.3846 11.6147 16.3846 12C16.3846 12.3853 16.0747 12.6977 15.6923 12.6977H8.30769C7.92534 12.6977 7.61538 12.3853 7.61538 12ZM7.61538 15.7209C7.61538 15.3356 7.92534 15.0233 8.30769 15.0233H12.9231C13.3054 15.0233 13.6154 15.3356 13.6154 15.7209C13.6154 16.1062 13.3054 16.4186 12.9231 16.4186H8.30769C7.92534 16.4186 7.61538 16.1062 7.61538 15.7209Z" fill="#A0A0A0"/>
</svg>
