<svg width="20" height="18" viewBox="0 0 20 18" fill="none" xmlns="http://www.w3.org/2000/svg">
<path fill-rule="evenodd" clip-rule="evenodd" d="M10 0C7.76736 0 5.95745 1.8673 5.95745 4.17073C5.95745 6.47416 7.76736 8.34146 10 8.34146C12.2326 8.34146 14.0426 6.47416 14.0426 4.17073C14.0426 1.8673 12.2326 0 10 0ZM7.23404 4.17073C7.23404 2.5947 8.4724 1.31707 10 1.31707C11.5276 1.31707 12.766 2.5947 12.766 4.17073C12.766 5.74676 11.5276 7.02439 10 7.02439C8.4724 7.02439 7.23404 5.74676 7.23404 4.17073Z" fill="#1B1A1C"/>
<path d="M15.1064 1.7561C14.7539 1.7561 14.4681 2.05093 14.4681 2.41463C14.4681 2.77833 14.7539 3.07317 15.1064 3.07317C16.2779 3.07317 17.0213 3.86845 17.0213 4.60976C17.0213 5.35107 16.2779 6.14634 15.1064 6.14634C14.7539 6.14634 14.4681 6.44118 14.4681 6.80488C14.4681 7.16858 14.7539 7.46341 15.1064 7.46341C16.7551 7.46341 18.2979 6.29311 18.2979 4.60976C18.2979 2.9264 16.7551 1.7561 15.1064 1.7561Z" fill="#1B1A1C"/>
<path d="M5.53192 2.41463C5.53192 2.05093 5.24614 1.7561 4.89362 1.7561C3.24492 1.7561 1.70213 2.9264 1.70213 4.60976C1.70213 6.29311 3.24492 7.46341 4.89362 7.46341C5.24614 7.46341 5.53192 7.16858 5.53192 6.80488C5.53192 6.44118 5.24614 6.14634 4.89362 6.14634C3.72214 6.14634 2.97872 5.35107 2.97872 4.60976C2.97872 3.86845 3.72214 3.07317 4.89362 3.07317C5.24614 3.07317 5.53192 2.77833 5.53192 2.41463Z" fill="#1B1A1C"/>
<path fill-rule="evenodd" clip-rule="evenodd" d="M10 9.65854C8.48147 9.65854 7.07783 10.0807 6.03518 10.7978C4.99699 11.5119 4.25532 12.5707 4.25532 13.8293C4.25532 15.0878 4.99699 16.1466 6.03518 16.8607C7.07783 17.5778 8.48147 18 10 18C11.5185 18 12.9222 17.5778 13.9648 16.8607C15.003 16.1466 15.7447 15.0878 15.7447 13.8293C15.7447 12.5707 15.003 11.5119 13.9648 10.7978C12.9222 10.0807 11.5185 9.65854 10 9.65854ZM5.53192 13.8293C5.53192 13.1481 5.93335 12.4508 6.74331 11.8937C7.5488 11.3397 8.69835 10.9756 10 10.9756C11.3017 10.9756 12.4512 11.3397 13.2567 11.8937C14.0667 12.4508 14.4681 13.1481 14.4681 13.8293C14.4681 14.5104 14.0667 15.2077 13.2567 15.7648C12.4512 16.3189 11.3017 16.6829 10 16.6829C8.69835 16.6829 7.5488 16.3189 6.74331 15.7648C5.93335 15.2077 5.53192 14.5104 5.53192 13.8293Z" fill="#1B1A1C"/>
<path d="M16.185 11.0541C16.2605 10.6988 16.6009 10.474 16.9452 10.5519C17.7639 10.7371 18.5015 11.0716 19.0492 11.534C19.5964 11.9959 20 12.6309 20 13.3902C20 14.1495 19.5964 14.7846 19.0492 15.2465C18.5015 15.7089 17.7639 16.0434 16.9452 16.2286C16.6009 16.3065 16.2605 16.0817 16.185 15.7264C16.1095 15.3712 16.3274 15.02 16.6718 14.9421C17.3461 14.7895 17.8851 14.5275 18.2407 14.2272C18.5969 13.9265 18.7234 13.6329 18.7234 13.3902C18.7234 13.1476 18.5969 12.854 18.2407 12.5533C17.8851 12.253 17.3461 11.9909 16.6718 11.8384C16.3274 11.7605 16.1095 11.4093 16.185 11.0541Z" fill="#1B1A1C"/>
<path d="M3.05476 10.5519C3.3991 10.474 3.73946 10.6988 3.81497 11.0541C3.89048 11.4093 3.67256 11.7605 3.32822 11.8384C2.65386 11.9909 2.11494 12.253 1.75925 12.5533C1.40309 12.854 1.2766 13.1476 1.2766 13.3902C1.2766 13.6329 1.40309 13.9265 1.75925 14.2272C2.11494 14.5275 2.65386 14.7895 3.32822 14.9421C3.67256 15.02 3.89048 15.3712 3.81497 15.7264C3.73946 16.0817 3.3991 16.3065 3.05476 16.2286C2.23614 16.0434 1.49847 15.7089 0.950803 15.2465C0.403616 14.7846 0 14.1495 0 13.3902C0 12.6309 0.403616 11.9959 0.950803 11.534C1.49847 11.0716 2.23614 10.7371 3.05476 10.5519Z" fill="#1B1A1C"/>
</svg>
