<svg width="22" height="20" viewBox="0 0 22 20" fill="none" xmlns="http://www.w3.org/2000/svg">
<path fill-rule="evenodd" clip-rule="evenodd" d="M4.62436 2.4242C2.96537 3.18252 1.75 4.98623 1.75 7.1371C1.75 9.3345 2.64922 11.0282 3.93829 12.4798C5.00072 13.6761 6.28684 14.6676 7.54113 15.6346C7.83904 15.8643 8.13515 16.0926 8.42605 16.3219C8.95208 16.7366 9.42132 17.1005 9.87361 17.3648C10.3261 17.6293 10.6904 17.75 11 17.75C11.3096 17.75 11.6739 17.6293 12.1264 17.3648C12.5787 17.1005 13.0479 16.7366 13.574 16.3219C13.8649 16.0926 14.161 15.8643 14.4589 15.6346C15.7132 14.6676 16.9993 13.6761 18.0617 12.4798C19.3508 11.0282 20.25 9.3345 20.25 7.1371C20.25 4.98623 19.0346 3.18252 17.3756 2.4242C15.7639 1.68748 13.5983 1.88258 11.5404 4.02074C11.399 4.16763 11.2039 4.25064 11 4.25064C10.7961 4.25064 10.601 4.16763 10.4596 4.02074C8.40166 1.88258 6.23607 1.68748 4.62436 2.4242ZM11 2.45882C8.68795 0.390244 6.09896 0.100872 4.00076 1.05996C1.78471 2.07293 0.25 4.42503 0.25 7.1371C0.25 9.80263 1.3605 11.8361 2.81672 13.4758C3.98287 14.7889 5.41022 15.888 6.67083 16.8586C6.95659 17.0786 7.23378 17.292 7.49742 17.4999C8.00965 17.9037 8.55954 18.3343 9.11682 18.6599C9.67386 18.9854 10.3096 19.25 11 19.25C11.6904 19.25 12.3261 18.9854 12.8832 18.6599C13.4405 18.3343 13.9903 17.9037 14.5026 17.4999C14.7662 17.292 15.0434 17.0786 15.3292 16.8586C16.5898 15.888 18.0171 14.7889 19.1833 13.4758C20.6395 11.8361 21.75 9.80263 21.75 7.1371C21.75 4.42503 20.2153 2.07293 17.9992 1.05996C15.901 0.100872 13.3121 0.390244 11 2.45882Z" fill="#9747FF"/>
</svg>
