<svg width="22" height="23" viewBox="0 0 22 23" fill="none" xmlns="http://www.w3.org/2000/svg">
<path fill-rule="evenodd" clip-rule="evenodd" d="M11 2.25C5.89137 2.25 1.75 6.39137 1.75 11.5C1.75 16.6086 5.89137 20.75 11 20.75C16.1086 20.75 20.25 16.6086 20.25 11.5C20.25 6.39137 16.1086 2.25 11 2.25ZM0.25 11.5C0.25 5.56294 5.06294 0.75 11 0.75C16.9371 0.75 21.75 5.56294 21.75 11.5C21.75 17.4371 16.9371 22.25 11 22.25C5.06294 22.25 0.25 17.4371 0.25 11.5ZM7.39747 15.0534C7.64413 14.7206 8.11385 14.6508 8.44661 14.8975C9.17495 15.4373 10.0541 15.75 11 15.75C11.9459 15.75 12.825 15.4373 13.5534 14.8975C13.8862 14.6508 14.3559 14.7206 14.6025 15.0534C14.8492 15.3862 14.7794 15.8559 14.4466 16.1025C13.4742 16.8233 12.285 17.25 11 17.25C9.71503 17.25 8.5258 16.8233 7.55339 16.1025C7.22062 15.8559 7.15082 15.3862 7.39747 15.0534Z" fill="white"/>
<path d="M15 10C15 10.8284 14.5523 11.5 14 11.5C13.4477 11.5 13 10.8284 13 10C13 9.17157 13.4477 8.5 14 8.5C14.5523 8.5 15 9.17157 15 10Z" fill="white"/>
<path d="M9 10C9 10.8284 8.55229 11.5 8 11.5C7.44772 11.5 7 10.8284 7 10C7 9.17157 7.44772 8.5 8 8.5C8.55229 8.5 9 9.17157 9 10Z" fill="white"/>
</svg>
