<svg width="22" height="22" viewBox="0 0 22 22" fill="none" xmlns="http://www.w3.org/2000/svg">
<path fill-rule="evenodd" clip-rule="evenodd" d="M10.2915 2.30809C9.89775 2.82224 9.45333 3.61551 8.80778 4.77355L8.48009 5.36141C8.46033 5.39684 8.44083 5.43194 8.42152 5.4667C8.12078 6.0079 7.86696 6.46469 7.45795 6.77518C7.04454 7.08901 6.54057 7.20227 5.95486 7.3339C5.91722 7.34235 5.87924 7.35089 5.84092 7.35956L5.20457 7.50354C3.94925 7.78757 3.09527 7.98299 2.51033 8.21351C1.93953 8.43845 1.81905 8.62275 1.77312 8.77044C1.72465 8.9263 1.72321 9.16472 2.06445 9.70679C2.4108 10.257 2.9951 10.9432 3.84962 11.9425L4.28345 12.4498C4.30866 12.4793 4.33364 12.5084 4.35838 12.5373C4.76139 13.0074 5.09742 13.3993 5.25156 13.895C5.40477 14.3877 5.35399 14.9054 5.29242 15.5331C5.28864 15.5716 5.28483 15.6105 5.28101 15.6499L5.21543 16.3267C5.08633 17.6589 4.99929 18.5762 5.02873 19.2369C5.05811 19.8965 5.19741 20.0788 5.30816 20.1628C5.40667 20.2376 5.58876 20.3204 6.18199 20.1504C6.78486 19.9777 7.5861 19.6111 8.76153 19.0699L9.35734 18.7956C9.39404 18.7787 9.43038 18.7619 9.46641 18.7452C10.0112 18.4934 10.4839 18.2748 10.9995 18.2748C11.5152 18.2748 11.9878 18.4934 12.5326 18.7452C12.5687 18.7619 12.605 18.7787 12.6417 18.7956L13.2375 19.0699C14.4129 19.6111 15.2142 19.9777 15.8171 20.1504C16.4103 20.3204 16.5924 20.2376 16.6909 20.1628C16.8016 20.0788 16.9409 19.8965 16.9703 19.2369C16.9998 18.5762 16.9127 17.6589 16.7836 16.3267L16.718 15.6499C16.7142 15.6105 16.7104 15.5716 16.7066 15.5331C16.6451 14.9054 16.5943 14.3877 16.7475 13.895C16.9016 13.3993 17.2377 13.0074 17.6407 12.5372C17.6654 12.5084 17.6904 12.4793 17.7156 12.4498L18.1494 11.9425C19.004 10.9432 19.5883 10.257 19.9346 9.70679C20.2758 9.16472 20.2744 8.9263 20.2259 8.77044C20.18 8.62275 20.0595 8.43845 19.4887 8.21351C18.9038 7.98299 18.0498 7.78757 16.7945 7.50354L16.1581 7.35956C16.1198 7.35089 16.0818 7.34235 16.0442 7.33389C15.4585 7.20227 14.9545 7.08901 14.5411 6.77518C14.1321 6.46469 13.8783 6.0079 13.5775 5.4667C13.5582 5.43194 13.5387 5.39684 13.519 5.36141L13.1913 4.77355C12.5457 3.61551 12.1013 2.82224 11.7076 2.30809C11.3142 1.79443 11.1133 1.75 10.9995 1.75C10.8858 1.75 10.6848 1.79443 10.2915 2.30809ZM9.10057 1.3961C9.57726 0.773631 10.1664 0.25 10.9995 0.25C11.8326 0.25 12.4218 0.773631 12.8985 1.3961C13.3669 2.00773 13.8635 2.89876 14.4706 3.98776L14.8292 4.63106C15.2217 5.33523 15.3221 5.48482 15.4481 5.58044C15.5693 5.67247 15.7257 5.7238 16.4892 5.89654L17.1892 6.05492C18.3648 6.32088 19.3333 6.53999 20.0387 6.81796C20.7709 7.10651 21.4116 7.5318 21.6583 8.32502C21.9024 9.11007 21.628 9.83232 21.204 10.5059C20.792 11.1604 20.134 11.9298 19.3301 12.8698L18.8556 13.4247C18.3386 14.0292 18.2306 14.1772 18.1798 14.3404C18.1281 14.5069 18.1329 14.6992 18.211 15.5052L18.2826 16.2433C18.4043 17.4994 18.5036 18.5236 18.4688 19.3037C18.4335 20.0977 18.2531 20.8601 17.5979 21.3576C16.9303 21.8643 16.1537 21.8072 15.4039 21.5924C14.6769 21.3841 13.7706 20.9667 12.67 20.46L12.0144 20.1581C11.297 19.8278 11.1435 19.7748 10.9995 19.7748C10.8556 19.7748 10.702 19.8278 9.98469 20.1581L9.32903 20.46C8.22849 20.9667 7.32216 21.3841 6.59516 21.5924C5.84538 21.8072 5.06871 21.8643 4.40119 21.3576C3.74591 20.8601 3.56558 20.0977 3.53021 19.3037C3.49546 18.5236 3.59474 17.4993 3.71648 16.2433L3.78801 15.5052C3.86611 14.6992 3.87098 14.5069 3.81922 14.3404C3.76845 14.1772 3.66045 14.0292 3.14345 13.4247L2.66896 12.8698C1.86511 11.9299 1.20704 11.1604 0.795037 10.5059C0.371006 9.83233 0.0966498 9.11007 0.340777 8.32502C0.587447 7.5318 1.22818 7.10651 1.96037 6.81796C2.66573 6.53999 3.63425 6.32088 4.80989 6.05492L4.87355 6.04052L5.5099 5.89654C6.27334 5.72381 6.42974 5.67247 6.55099 5.58044C6.67694 5.48482 6.77736 5.33523 7.1699 4.63106L7.52851 3.98775C8.13552 2.89876 8.63219 2.00773 9.10057 1.3961Z" fill="white"/>
</svg>
