<svg width="18" height="18" viewBox="0 0 18 18" fill="none" xmlns="http://www.w3.org/2000/svg">
<path fill-rule="evenodd" clip-rule="evenodd" d="M6.843 3.9323L5.99123 6.09735C5.73378 6.75173 5.19989 7.26251 4.52943 7.49585L2.44159 8.2225L4.52943 8.94915C5.19989 9.18249 5.73378 9.69327 5.99123 10.3477L6.843 12.5127L7.69477 10.3477C7.95222 9.69327 8.48611 9.18249 9.15656 8.94915L11.2444 8.2225L9.15656 7.49585C8.48611 7.26251 7.95222 6.75173 7.69477 6.09735L6.843 3.9323ZM7.75177 2.25428C7.42961 1.43542 6.25638 1.43542 5.93423 2.25428L4.62807 5.57429C4.52509 5.83604 4.31154 6.04035 4.04336 6.13369L0.650901 7.31439C-0.216967 7.61644 -0.216967 8.82856 0.650902 9.13061L4.04336 10.3113C4.31154 10.4046 4.52509 10.609 4.62807 10.8707L5.93423 14.1907C6.25638 15.0096 7.42961 15.0096 7.75177 14.1907L9.05792 10.8707C9.1609 10.609 9.37446 10.4046 9.64264 10.3113L13.0351 9.13061C13.903 8.82856 13.903 7.61644 13.0351 7.31439L9.64264 6.13369C9.37446 6.04035 9.1609 5.83604 9.05792 5.57429L7.75177 2.25428Z" fill="#9747FF"/>
<path d="M13.3637 0.293003C13.532 -0.0976675 14.0927 -0.0976679 14.2609 0.293003L14.6082 1.09935C14.6575 1.21395 14.7499 1.3052 14.866 1.35395L15.6824 1.69689C16.078 1.86305 16.078 2.41678 15.6824 2.58293L14.866 2.92588C14.7499 2.97462 14.6575 3.06588 14.6082 3.18048L14.2609 3.98682C14.0927 4.37749 13.532 4.3775 13.3637 3.98682L13.0165 3.18048C12.9671 3.06588 12.8747 2.97462 12.7587 2.92588L11.9422 2.58293C11.5466 2.41678 11.5466 1.86305 11.9422 1.69689L12.7587 1.35395C12.8747 1.3052 12.9671 1.21395 13.0165 1.09935L13.3637 0.293003Z" fill="#9747FF"/>
<path d="M13.4716 11.4904C13.7857 10.6521 14.9862 10.6521 15.3003 11.4904L15.702 12.5623C15.8007 12.8259 16.0111 13.0337 16.278 13.1312L17.3634 13.5278C18.2122 13.838 18.2122 15.0237 17.3634 15.3339L16.278 15.7305C16.0111 15.828 15.8007 16.0358 15.702 16.2994L15.3003 17.3713C14.9862 18.2096 13.7857 18.2096 13.4716 17.3713L13.07 16.2994C12.9712 16.0358 12.7608 15.828 12.494 15.7305L11.4086 15.3339C10.5598 15.0237 10.5598 13.838 11.4086 13.5278L12.494 13.1312C12.7608 13.0337 12.9712 12.8259 13.07 12.5623L13.4716 11.4904Z" fill="#9747FF"/>
</svg>
