<svg width="22" height="22" viewBox="0 0 22 22" fill="none" xmlns="http://www.w3.org/2000/svg">
<path fill-rule="evenodd" clip-rule="evenodd" d="M11 0C11.4142 0 11.75 0.335786 11.75 0.75V2.75C11.75 3.16421 11.4142 3.5 11 3.5C10.5858 3.5 10.25 3.16421 10.25 2.75V0.75C10.25 0.335786 10.5858 0 11 0ZM2.66865 2.46609C2.94815 2.16039 3.42255 2.13915 3.72825 2.41865L5.95026 4.45024C6.25596 4.72974 6.2772 5.20413 5.9977 5.50983C5.7182 5.81553 5.2438 5.83677 4.9381 5.55727L2.71609 3.52569C2.41039 3.24619 2.38915 2.77179 2.66865 2.46609ZM19.3314 2.46609C19.6109 2.77179 19.5896 3.24619 19.2839 3.52569L17.0619 5.55727C16.7562 5.83677 16.2818 5.81553 16.0023 5.50983C15.7228 5.20413 15.744 4.72974 16.0497 4.45024L18.2718 2.41865C18.5775 2.13915 19.0518 2.16039 19.3314 2.46609ZM11 6.5C8.65279 6.5 6.75 8.40279 6.75 10.75C6.75 13.0972 8.65279 15 11 15C13.3472 15 15.25 13.0972 15.25 10.75C15.25 8.40279 13.3472 6.5 11 6.5ZM5.25 10.75C5.25 7.57436 7.82436 5 11 5C14.1756 5 16.75 7.57436 16.75 10.75C16.75 13.9256 14.1756 16.5 11 16.5C7.82436 16.5 5.25 13.9256 5.25 10.75ZM0.25 10.75C0.25 10.3358 0.585786 10 1 10H3C3.41421 10 3.75 10.3358 3.75 10.75C3.75 11.1642 3.41421 11.5 3 11.5H1C0.585786 11.5 0.25 11.1642 0.25 10.75ZM18.25 10.75C18.25 10.3358 18.5858 10 19 10H21C21.4142 10 21.75 10.3358 21.75 10.75C21.75 11.1642 21.4142 11.5 21 11.5H19C18.5858 11.5 18.25 11.1642 18.25 10.75ZM16.0255 15.7752C16.3184 15.4823 16.7933 15.4823 17.0862 15.7752L19.3082 17.9975C19.6011 18.2904 19.601 18.7653 19.3081 19.0582C19.0152 19.3511 18.5403 19.351 18.2475 19.0581L16.0255 16.8358C15.7326 16.5429 15.7326 16.0681 16.0255 15.7752ZM5.97467 15.7753C6.26756 16.0682 6.26756 16.5431 5.97467 16.836L3.75244 19.0582C3.45955 19.3511 2.98468 19.3511 2.69178 19.0582C2.39889 18.7653 2.39889 18.2904 2.69178 17.9976L4.91401 15.7753C5.2069 15.4824 5.68177 15.4824 5.97467 15.7753ZM11 18C11.4142 18 11.75 18.3358 11.75 18.75V20.75C11.75 21.1642 11.4142 21.5 11 21.5C10.5858 21.5 10.25 21.1642 10.25 20.75V18.75C10.25 18.3358 10.5858 18 11 18Z" fill="white"/>
</svg>
