<svg width="14" height="18" viewBox="0 0 14 18" fill="none" xmlns="http://www.w3.org/2000/svg">
<path d="M7.00049 12.5L6.60187 12.9484C6.8292 13.1505 7.17177 13.1505 7.39911 12.9484L7.00049 12.5ZM5.7155 15L5.1282 14.8772C5.09599 15.0313 5.12561 15.1918 5.21066 15.3242L5.7155 15ZM8.50032 15L8.9803 15.36C9.09215 15.2109 9.12834 15.0183 9.07825 14.8387L8.50032 15ZM9.6001 4.2C9.6001 5.63594 8.43604 6.8 7.0001 6.8V8C9.09878 8 10.8001 6.29868 10.8001 4.2H9.6001ZM7.0001 6.8C5.56416 6.8 4.4001 5.63594 4.4001 4.2H3.2001C3.2001 6.29868 4.90142 8 7.0001 8V6.8ZM4.4001 4.2C4.4001 2.76406 5.56416 1.6 7.0001 1.6V0.4C4.90142 0.4 3.2001 2.10132 3.2001 4.2H4.4001ZM7.0001 1.6C8.43604 1.6 9.6001 2.76406 9.6001 4.2H10.8001C10.8001 2.10132 9.09878 0.4 7.0001 0.4V1.6ZM12.8001 13.4C12.8001 14.4462 12.7678 15.0352 12.2212 15.4803C11.9248 15.7217 11.4293 15.9573 10.5811 16.129C9.73551 16.3002 8.57948 16.4 7.0001 16.4V17.6C8.62072 17.6 9.86469 17.4984 10.8191 17.3052C11.7709 17.1125 12.4754 16.8209 12.979 16.4108C14.0323 15.553 14.0001 14.342 14.0001 13.4H12.8001ZM7.0001 16.4C5.42072 16.4 4.26469 16.3002 3.41913 16.129C2.57092 15.9573 2.07539 15.7217 1.77897 15.4803C1.23235 15.0352 1.2001 14.4462 1.2001 13.4H9.76324e-05C9.76324e-05 14.342 -0.0321544 15.553 1.02123 16.4108C1.5248 16.8209 2.22928 17.1125 3.18107 17.3052C4.13551 17.4984 5.37948 17.6 7.0001 17.6V16.4ZM1.2001 13.4C1.2001 12.7189 1.6972 11.9801 2.76877 11.3774C3.82154 10.7852 5.31632 10.4 7.0001 10.4V9.2C5.14926 9.2 3.44404 9.62071 2.18046 10.3315C0.935684 11.0317 9.76324e-05 12.0928 9.76324e-05 13.4H1.2001ZM7.0001 10.4C8.68388 10.4 10.1787 10.7852 11.2314 11.3774C12.303 11.9801 12.8001 12.7189 12.8001 13.4H14.0001C14.0001 12.0928 13.0645 11.0317 11.8197 10.3315C10.5562 9.62071 8.85094 9.2 7.0001 9.2V10.4ZM4.14551 10.4808L5.9237 12.3429L6.79156 11.5141L5.01337 9.65204L4.14551 10.4808ZM5.95901 12.377L6.60187 12.9484L7.39911 12.0515L6.75625 11.4801L5.95901 12.377ZM5.77033 11.8057L5.1282 14.8772L6.3028 15.1228L6.94493 12.0513L5.77033 11.8057ZM5.21066 15.3242L6.49526 17.3243L7.50493 16.6757L6.22034 14.6757L5.21066 15.3242ZM7.48007 17.36L8.9803 15.36L8.02034 14.64L6.52012 16.64L7.48007 17.36ZM7.39911 12.9484L8.04196 12.377L7.24473 11.4801L6.60187 12.0515L7.39911 12.9484ZM8.07737 12.3428L9.85478 10.4807L8.98674 9.65213L7.20933 11.5142L8.07737 12.3428ZM9.07825 14.8387L8.22127 11.7673L7.06542 12.0898L7.92239 15.1612L9.07825 14.8387Z" fill="#1B1A1C"/>
</svg>
