<svg width="18" height="17" viewBox="0 0 18 17" fill="none" xmlns="http://www.w3.org/2000/svg">
<path d="M13.4347 15.7551L13.951 16.0607L13.4347 15.7551ZM13.6515 15.3888L13.1352 15.0831L13.6515 15.3888ZM12.3485 15.3888L11.8321 15.6944L11.8322 15.6944L12.3485 15.3888ZM12.5653 15.7551L13.0817 15.4495L13.0817 15.4495L12.5653 15.7551ZM9.15224 13.5654L9.70657 13.3358L9.15224 13.5654ZM11.3158 14.7966L11.3055 15.3965L11.3158 14.7966ZM10.2346 14.6478L10.005 15.2021L10.005 15.2021L10.2346 14.6478ZM16.8478 13.5654L17.4021 13.795H17.4021L16.8478 13.5654ZM14.6842 14.7966L14.6738 14.1967L14.6842 14.7966ZM15.7654 14.6478L15.995 15.2021H15.995L15.7654 14.6478ZM16.045 8.29471L15.7315 8.80629L16.045 8.29471ZM16.7053 8.95499L17.2169 8.6415V8.6415L16.7053 8.95499ZM9.955 8.29471L9.6415 7.78313L9.955 8.29471ZM9.29472 8.95499L9.8063 9.26849L9.29472 8.95499ZM11.9611 14.884L12.2628 14.3653L12.2628 14.3653L11.9611 14.884ZM7.97811 0.960574C8.0668 0.641292 7.87987 0.310566 7.56059 0.221877C7.2413 0.133188 6.91058 0.32012 6.82189 0.639401L7.97811 0.960574ZM2.82189 15.0394C2.7332 15.3587 2.92013 15.6894 3.23941 15.7781C3.5587 15.8668 3.88942 15.6799 3.97811 15.3606L2.82189 15.0394ZM15.1781 0.960574C15.2668 0.641292 15.0799 0.310566 14.7606 0.221877C14.4413 0.133188 14.1106 0.32012 14.0219 0.639401L15.1781 0.960574ZM12.5774 5.8394C12.4888 6.15868 12.6757 6.48941 12.995 6.5781C13.3143 6.66679 13.645 6.47986 13.7337 6.16057L12.5774 5.8394ZM17 6.19999C17.3314 6.19999 17.6 5.93136 17.6 5.59999C17.6 5.26862 17.3314 4.99999 17 4.99999V6.19999ZM2.6 4.99999C2.26863 4.99999 2 5.26862 2 5.59999C2 5.93136 2.26863 6.19999 2.6 6.19999V4.99999ZM6.6 11.8C6.93137 11.8 7.2 11.5314 7.2 11.2C7.2 10.8686 6.93137 10.6 6.6 10.6V11.8ZM1 10.6C0.668629 10.6 0.4 10.8686 0.4 11.2C0.4 11.5314 0.668629 11.8 1 11.8V10.6ZM13.951 16.0607L14.1678 15.6944L13.1352 15.0831L12.9183 15.4495L13.951 16.0607ZM11.8322 15.6944L12.049 16.0607L13.0817 15.4495L12.8648 15.0831L11.8322 15.6944ZM12.9183 15.4495C12.94 15.4129 12.978 15.4 13 15.4C13.022 15.4 13.06 15.4129 13.0817 15.4495L12.049 16.0607C12.4746 16.7797 13.5254 16.7797 13.951 16.0607L12.9183 15.4495ZM12.4 8.59999H13.6V7.39999H12.4V8.59999ZM16.4 11.4V11.8H17.6V11.4H16.4ZM9.6 11.8V11.4H8.4V11.8H9.6ZM8.4 11.8C8.4 12.2577 8.39967 12.6311 8.42042 12.9352C8.44154 13.2446 8.48646 13.5259 8.59791 13.795L9.70657 13.3358C9.66578 13.2373 9.63458 13.1018 9.61764 12.8535C9.60032 12.5997 9.6 12.2742 9.6 11.8H8.4ZM11.3262 14.1967C10.824 14.188 10.6126 14.1549 10.4642 14.0934L10.005 15.2021C10.3849 15.3594 10.8034 15.3879 11.3055 15.3965L11.3262 14.1967ZM8.59791 13.795C8.8618 14.4321 9.36795 14.9382 10.005 15.2021L10.4642 14.0934C10.1212 13.9514 9.84866 13.6788 9.70657 13.3358L8.59791 13.795ZM16.4 11.8C16.4 12.2742 16.3997 12.5997 16.3824 12.8535C16.3654 13.1018 16.3342 13.2373 16.2934 13.3358L17.4021 13.795C17.5135 13.5259 17.5585 13.2446 17.5796 12.9352C17.6003 12.6311 17.6 12.2577 17.6 11.8H16.4ZM14.6945 15.3965C15.1966 15.3879 15.6151 15.3594 15.995 15.2021L15.5358 14.0934C15.3874 14.1549 15.176 14.188 14.6738 14.1967L14.6945 15.3965ZM16.2934 13.3358C16.1513 13.6788 15.8788 13.9514 15.5358 14.0934L15.995 15.2021C16.6321 14.9382 17.1382 14.4321 17.4021 13.795L16.2934 13.3358ZM13.6 8.59999C14.2663 8.59999 14.7239 8.60062 15.0764 8.63413C15.4199 8.6668 15.6011 8.72641 15.7315 8.80629L16.3585 7.78313C16.0079 7.56828 15.6213 7.48054 15.19 7.43952C14.7675 7.39935 14.2431 7.39999 13.6 7.39999V8.59999ZM17.6 11.4C17.6 10.7569 17.6006 10.2325 17.5605 9.81004C17.5195 9.37866 17.4317 8.99208 17.2169 8.6415L16.1937 9.26849C16.2736 9.39884 16.3332 9.58008 16.3659 9.92363C16.3994 10.2761 16.4 10.7337 16.4 11.4H17.6ZM15.7315 8.80629C15.9199 8.92173 16.0783 9.08011 16.1937 9.26849L17.2169 8.6415C17.0025 8.29165 16.7083 7.99751 16.3585 7.78313L15.7315 8.80629ZM12.4 7.39999C11.7569 7.39999 11.2325 7.39935 10.81 7.43952C10.3787 7.48054 9.99209 7.56828 9.6415 7.78313L10.2685 8.80629C10.3989 8.72641 10.5801 8.6668 10.9236 8.63413C11.2761 8.60062 11.7337 8.59999 12.4 8.59999V7.39999ZM9.6 11.4C9.6 10.7337 9.60063 10.2761 9.63415 9.92363C9.66681 9.58008 9.72642 9.39884 9.8063 9.26849L8.78313 8.6415C8.5683 8.99208 8.48055 9.37866 8.43953 9.81004C8.39937 10.2325 8.4 10.7569 8.4 11.4H9.6ZM9.6415 7.78313C9.29166 7.99751 8.99752 8.29165 8.78313 8.6415L9.8063 9.26849C9.92174 9.08011 10.0801 8.92173 10.2685 8.80629L9.6415 7.78313ZM12.8648 15.0831C12.7865 14.9508 12.707 14.8152 12.6273 14.7059C12.5402 14.5864 12.4275 14.4611 12.2628 14.3653L11.6595 15.4026C11.6298 15.3854 11.6267 15.3704 11.6575 15.4127C11.6957 15.465 11.7423 15.5425 11.8321 15.6944L12.8648 15.0831ZM11.3055 15.3965C11.4867 15.3996 11.5816 15.4019 11.6493 15.4094C11.7059 15.4156 11.691 15.421 11.6595 15.4026L12.2628 14.3653C12.0961 14.2684 11.9287 14.233 11.7814 14.2167C11.6453 14.2016 11.4851 14.1994 11.3262 14.1967L11.3055 15.3965ZM14.1678 15.6944C14.2577 15.5425 14.3043 15.465 14.3425 15.4127C14.3733 15.3704 14.3701 15.3854 14.3405 15.4026L13.7372 14.3653C13.5725 14.4611 13.4598 14.5864 13.3727 14.7059C13.293 14.8152 13.2135 14.9508 13.1352 15.0831L14.1678 15.6944ZM14.6738 14.1967C14.5149 14.1994 14.3547 14.2016 14.2186 14.2167C14.0713 14.233 13.9039 14.2684 13.7372 14.3653L14.3405 15.4026C14.3089 15.421 14.2941 15.4156 14.3506 15.4094C14.4183 15.4019 14.5133 15.3996 14.6945 15.3965L14.6738 14.1967ZM6.82189 0.639401L2.82189 15.0394L3.97811 15.3606L7.97811 0.960574L6.82189 0.639401ZM14.0219 0.639401L12.5774 5.8394L13.7337 6.16057L15.1781 0.960574L14.0219 0.639401ZM17 4.99999H2.6V6.19999H17V4.99999ZM6.6 10.6H1V11.8H6.6V10.6Z" fill="#1B1A1C"/>
</svg>
