<svg width="18" height="14" viewBox="0 0 18 14" fill="none" xmlns="http://www.w3.org/2000/svg">
<path d="M4.10315 12.6971L3.67888 13.1214H3.67888L4.10315 12.6971ZM16.2973 12.6971L16.7215 13.1214L16.2973 12.6971ZM16.2973 4.50298L16.7215 4.07872V4.07871L16.2973 4.50298ZM14.6589 3.26381C14.3292 3.23137 14.0355 3.47242 14.0031 3.8022C13.9706 4.13198 14.2117 4.42561 14.5415 4.45805L14.6589 3.26381ZM4.05821 10.9413C4.02578 10.6115 3.73214 10.3704 3.40236 10.4029C3.07258 10.4353 2.83154 10.7289 2.86398 11.0587L4.05821 10.9413ZM11.6 7.79999C11.6 8.13136 11.8686 8.39999 12.2 8.39999C12.5314 8.39999 12.8 8.13136 12.8 7.79999H11.6ZM12.8 4.59999C12.8 4.26862 12.5314 3.99999 12.2 3.99999C11.8686 3.99999 11.6 4.26862 11.6 4.59999H12.8ZM2.8 7.79999C2.8 8.13136 3.06863 8.39999 3.4 8.39999C3.73137 8.39999 4 8.13136 4 7.79999H2.8ZM4 4.59999C4 4.26862 3.73137 3.99999 3.4 3.99999C3.06863 3.99999 2.8 4.26862 2.8 4.59999H4ZM5.8 1.99999H9.8V0.799994H5.8V1.99999ZM9.8 10.4H5.8V11.6H9.8V10.4ZM5.8 10.4C4.65167 10.4 3.85078 10.3987 3.2465 10.3175C2.65948 10.2386 2.34862 10.0942 2.12721 9.87279L1.27868 10.7213C1.76021 11.2028 2.36651 11.41 3.0866 11.5068C3.78943 11.6013 4.68559 11.6 5.8 11.6V10.4ZM0.4 6.19999C0.4 7.3144 0.398726 8.21057 0.493218 8.91339C0.590031 9.63348 0.797146 10.2398 1.27868 10.7213L2.12721 9.87279C1.9058 9.65138 1.76144 9.34052 1.68252 8.7535C1.60127 8.14922 1.6 7.34833 1.6 6.19999H0.4ZM14 6.19999C14 7.34833 13.9987 8.14922 13.9175 8.7535C13.8386 9.34052 13.6942 9.65138 13.4728 9.87279L14.3213 10.7213C14.8029 10.2398 15.01 9.63348 15.1068 8.91339C15.2013 8.21057 15.2 7.3144 15.2 6.19999H14ZM9.8 11.6C10.9144 11.6 11.8106 11.6013 12.5134 11.5068C13.2335 11.41 13.8398 11.2028 14.3213 10.7213L13.4728 9.87279C13.2514 10.0942 12.9405 10.2386 12.3535 10.3175C11.7492 10.3987 10.9483 10.4 9.8 10.4V11.6ZM9.8 1.99999C10.9483 1.99999 11.7492 2.00127 12.3535 2.08251C12.9405 2.16143 13.2514 2.30579 13.4728 2.5272L14.3213 1.67867C13.8398 1.19714 13.2335 0.990025 12.5134 0.893212C11.8106 0.79872 10.9144 0.799994 9.8 0.799994V1.99999ZM15.2 6.19999C15.2 5.08559 15.2013 4.18942 15.1068 3.48659C15.01 2.76651 14.8029 2.16021 14.3213 1.67867L13.4728 2.5272C13.6942 2.74861 13.8386 3.05947 13.9175 3.64649C13.9987 4.25077 14 5.05166 14 6.19999H15.2ZM5.8 0.799994C4.68559 0.799994 3.78943 0.79872 3.0866 0.893212C2.36651 0.990025 1.76021 1.19714 1.27868 1.67867L2.12721 2.5272C2.34862 2.30579 2.65948 2.16143 3.2465 2.08251C3.85078 2.00127 4.65167 1.99999 5.8 1.99999V0.799994ZM1.6 6.19999C1.6 5.05166 1.60127 4.25077 1.68252 3.64649C1.76144 3.05947 1.9058 2.74861 2.12721 2.5272L1.27868 1.67867C0.797146 2.16021 0.590031 2.76651 0.493218 3.48659C0.398726 4.18942 0.4 5.08559 0.4 6.19999H1.6ZM12.2002 12.8H8.2002V14H12.2002V12.8ZM8.2002 12.8C7.05187 12.8 6.25098 12.7988 5.6467 12.7175C5.05968 12.6386 4.74882 12.4942 4.52741 12.2728L3.67888 13.1214C4.16042 13.6029 4.76672 13.81 5.4868 13.9068C6.18963 14.0013 7.08579 14 8.2002 14V12.8ZM16.4002 8.60004C16.4002 9.74837 16.3989 10.5493 16.3177 11.1535C16.2388 11.7406 16.0944 12.0514 15.873 12.2728L16.7215 13.1214C17.2031 12.6398 17.4102 12.0335 17.507 11.3134C17.6015 10.6106 17.6002 9.71444 17.6002 8.60004H16.4002ZM12.2002 14C13.3146 14 14.2108 14.0013 14.9136 13.9068C15.6337 13.81 16.24 13.6029 16.7215 13.1214L15.873 12.2728C15.6516 12.4942 15.3407 12.6386 14.7537 12.7175C14.1494 12.7988 13.3485 12.8 12.2002 12.8V14ZM17.6002 8.60004C17.6002 7.48563 17.6015 6.58946 17.507 5.88663C17.4102 5.16655 17.2031 4.56025 16.7215 4.07872L15.873 4.92724C16.0944 5.14865 16.2388 5.45951 16.3177 6.04653C16.3989 6.65081 16.4002 7.4517 16.4002 8.60004H17.6002ZM14.5415 4.45805C15.2689 4.52961 15.6265 4.68072 15.873 4.92724L16.7215 4.07871C16.1842 3.54142 15.4916 3.34572 14.6589 3.26381L14.5415 4.45805ZM2.86398 11.0587C2.94588 11.8914 3.14158 12.5841 3.67888 13.1214L4.52741 12.2728C4.28088 12.0263 4.12977 11.6688 4.05821 10.9413L2.86398 11.0587ZM9.2 6.19999C9.2 6.97319 8.5732 7.59999 7.8 7.59999V8.79999C9.23594 8.79999 10.4 7.63593 10.4 6.19999H9.2ZM7.8 7.59999C7.0268 7.59999 6.4 6.97319 6.4 6.19999H5.2C5.2 7.63593 6.36406 8.79999 7.8 8.79999V7.59999ZM6.4 6.19999C6.4 5.4268 7.0268 4.79999 7.8 4.79999V3.59999C6.36406 3.59999 5.2 4.76405 5.2 6.19999H6.4ZM7.8 4.79999C8.5732 4.79999 9.2 5.4268 9.2 6.19999H10.4C10.4 4.76405 9.23594 3.59999 7.8 3.59999V4.79999ZM12.8 7.79999V4.59999H11.6V7.79999H12.8ZM4 7.79999L4 4.59999H2.8L2.8 7.79999H4Z" fill="#1B1A1C"/>
</svg>
