<svg width="22" height="18" viewBox="0 0 22 18" fill="none" xmlns="http://www.w3.org/2000/svg">
<path d="M0.799902 13.9999C0.799902 14.3312 1.06853 14.5999 1.3999 14.5999C1.73127 14.5999 1.9999 14.3312 1.9999 13.9999H0.799902ZM4.5999 4.19998V3.59998V4.19998ZM7.7999 7.39997H8.3999H7.7999ZM7.1999 13.9999C7.1999 14.3312 7.46853 14.5999 7.7999 14.5999C8.13127 14.5999 8.3999 14.3312 8.3999 13.9999H7.1999ZM20.5999 6.59998H21.1999H20.5999ZM14.1999 4.19998V3.59998H13.5999V4.19998H14.1999ZM20.5999 11.4H21.1999H20.5999ZM18.1999 13.8V14.4V13.8ZM14.1999 13.8H13.5999V14.4H14.1999V13.8ZM11.5999 1.49988C11.5999 1.16851 11.3313 0.899878 10.9999 0.899878C10.6685 0.899878 10.3999 1.16851 10.3999 1.49988H11.5999ZM10.3999 16.4999C10.3999 16.8312 10.6685 17.0999 10.9999 17.0999C11.3313 17.0999 11.5999 16.8312 11.5999 16.4999H10.3999ZM1.9999 13.9999V7.39997H0.799902V13.9999H1.9999ZM1.9999 7.39997C1.9999 6.71041 2.27383 6.04909 2.76142 5.5615L1.9129 4.71297C1.20026 5.42561 0.799902 6.39215 0.799902 7.39997H1.9999ZM2.76142 5.5615C3.24902 5.0739 3.91034 4.79998 4.5999 4.79997V3.59998C3.59208 3.59998 2.62553 4.00033 1.9129 4.71297L2.76142 5.5615ZM4.5999 4.79997C5.28947 4.79998 5.95079 5.0739 6.43838 5.5615L7.28691 4.71297C6.57427 4.00033 5.60773 3.59998 4.5999 3.59998V4.79997ZM6.43838 5.5615C6.92597 6.04909 7.1999 6.71041 7.1999 7.39997H8.3999C8.3999 6.39215 7.99955 5.42561 7.28691 4.71297L6.43838 5.5615ZM7.1999 7.39997V13.9999H8.3999V7.39997H7.1999ZM1.3999 11.2H7.7999V9.99997H1.3999V11.2ZM18.1999 8.39998H14.1999V9.59998H18.1999V8.39998ZM18.1999 9.59998C18.9956 9.59998 19.7586 9.2839 20.3212 8.7213L19.4727 7.87277C19.1351 8.21033 18.6773 8.39998 18.1999 8.39998V9.59998ZM20.3212 8.7213C20.8838 8.15869 21.1999 7.39563 21.1999 6.59998H19.9999C19.9999 7.07736 19.8103 7.5352 19.4727 7.87277L20.3212 8.7213ZM21.1999 6.59998C21.1999 5.80433 20.8838 5.04126 20.3212 4.47865L19.4727 5.32718C19.8103 5.66475 19.9999 6.12259 19.9999 6.59998H21.1999ZM20.3212 4.47865C19.7586 3.91605 18.9956 3.59998 18.1999 3.59998V4.79997C18.6773 4.79997 19.1351 4.98962 19.4727 5.32718L20.3212 4.47865ZM18.1999 3.59998H14.1999V4.79997H18.1999V3.59998ZM13.5999 4.19998V8.99998H14.7999V4.19998H13.5999ZM18.1999 9.59998C18.6773 9.59998 19.1351 9.78962 19.4727 10.1272L20.3212 9.27865C19.7586 8.71604 18.9956 8.39998 18.1999 8.39998V9.59998ZM19.4727 10.1272C19.8103 10.4647 19.9999 10.9226 19.9999 11.4H21.1999C21.1999 10.6043 20.8838 9.84126 20.3212 9.27865L19.4727 10.1272ZM19.9999 11.4C19.9999 11.8774 19.8103 12.3352 19.4727 12.6728L20.3212 13.5213C20.8838 12.9587 21.1999 12.1956 21.1999 11.4H19.9999ZM19.4727 12.6728C19.1351 13.0103 18.6773 13.2 18.1999 13.2V14.4C18.9956 14.4 19.7586 14.0839 20.3212 13.5213L19.4727 12.6728ZM18.1999 13.2H14.1999V14.4H18.1999V13.2ZM14.7999 13.8V8.99998H13.5999V13.8H14.7999ZM10.3999 1.49988V16.4999H11.5999V1.49988H10.3999Z" fill="#1B1A1C"/>
</svg>
