<svg width="24" height="20" viewBox="0 0 24 20" fill="none" xmlns="http://www.w3.org/2000/svg">
<path d="M11.9998 6.99996V11M11.9998 15H12.0098M10.2898 1.85996L1.81978 16C1.64514 16.3024 1.55274 16.6453 1.55177 16.9945C1.55079 17.3437 1.64127 17.6871 1.8142 17.9905C1.98714 18.2939 2.2365 18.5467 2.53748 18.7238C2.83847 18.9009 3.18058 18.9961 3.52978 19H20.4698C20.819 18.9961 21.1611 18.9009 21.4621 18.7238C21.7631 18.5467 22.0124 18.2939 22.1854 17.9905C22.3583 17.6871 22.4488 17.3437 22.4478 16.9945C22.4468 16.6453 22.3544 16.3024 22.1798 16L13.7098 1.85996C13.5315 1.56607 13.2805 1.32308 12.981 1.15444C12.6814 0.985809 12.3435 0.897217 11.9998 0.897217C11.656 0.897217 11.3181 0.985809 11.0186 1.15444C10.7191 1.32308 10.468 1.56607 10.2898 1.85996Z" stroke="#FF5858" stroke-width="1.5" stroke-linecap="round" stroke-linejoin="round"/>
</svg>
