<svg width="21" height="22" viewBox="0 0 21 22" fill="none" xmlns="http://www.w3.org/2000/svg">
<path d="M17.3569 0.614135C17.57 0.25895 18.0307 0.143776 18.3859 0.356887L18 1.00001C18.3859 0.356887 18.3855 0.356683 18.3859 0.356887L18.3873 0.357721L18.3888 0.358672L18.3925 0.360926L18.4021 0.366844C18.4095 0.371419 18.4187 0.377258 18.4297 0.384376C18.4517 0.398608 18.4809 0.417981 18.516 0.442614C18.5864 0.491834 18.6813 0.562336 18.7927 0.655091C19.0148 0.840178 19.3052 1.11667 19.5945 1.49272C20.1774 2.25046 20.75 3.40735 20.75 5.00001C20.75 6.59266 20.1774 7.74955 19.5945 8.50729C19.3052 8.88334 19.0148 9.15983 18.7927 9.34492C18.6813 9.43768 18.5864 9.50818 18.516 9.5574C18.4809 9.58203 18.4517 9.60141 18.4297 9.61564C18.4187 9.62276 18.4095 9.62859 18.4021 9.63317L18.3925 9.63909L18.3888 9.64134L18.3873 9.64229C18.3869 9.6425 18.3859 9.64313 18 9.00001L18.3859 9.64313C18.0307 9.85624 17.57 9.74106 17.3569 9.38588C17.1447 9.03219 17.258 8.57388 17.6097 8.35959L17.6152 8.35606C17.6225 8.35134 17.6364 8.3422 17.6559 8.32855C17.6949 8.30121 17.7562 8.25609 17.8324 8.19259C17.9853 8.06518 18.1948 7.86667 18.4055 7.59272C18.8227 7.05046 19.25 6.20735 19.25 5.00001C19.25 3.79266 18.8227 2.94955 18.4055 2.40729C18.1948 2.13334 17.9853 1.93483 17.8324 1.80742C17.7562 1.74393 17.6949 1.6988 17.6559 1.67146C17.6364 1.65781 17.6225 1.64867 17.6152 1.64396L17.6097 1.64043C17.258 1.42614 17.1447 0.967827 17.3569 0.614135Z" fill="#9747FF"/>
<path fill-rule="evenodd" clip-rule="evenodd" d="M9.00001 0.250007C6.37666 0.250007 4.25001 2.37665 4.25001 5.00001C4.25001 7.62336 6.37666 9.75001 9.00001 9.75001C11.6234 9.75001 13.75 7.62336 13.75 5.00001C13.75 2.37665 11.6234 0.250007 9.00001 0.250007ZM5.75001 5.00001C5.75001 3.20508 7.20509 1.75001 9.00001 1.75001C10.7949 1.75001 12.25 3.20508 12.25 5.00001C12.25 6.79493 10.7949 8.25001 9.00001 8.25001C7.20509 8.25001 5.75001 6.79493 5.75001 5.00001Z" fill="#9747FF"/>
<path fill-rule="evenodd" clip-rule="evenodd" d="M9.00001 11.25C6.68646 11.25 4.55494 11.7759 2.97546 12.6643C1.4195 13.5396 0.250012 14.8661 0.250012 16.5L0.249946 16.602C0.248816 17.7638 0.247398 19.222 1.52642 20.2635C2.15589 20.7761 3.03649 21.1407 4.22622 21.3815C5.41927 21.623 6.97424 21.75 9.00001 21.75C11.0258 21.75 12.5808 21.623 13.7738 21.3815C14.9635 21.1407 15.8441 20.7761 16.4736 20.2635C17.7526 19.222 17.7512 17.7638 17.7501 16.602L17.75 16.5C17.75 14.8661 16.5805 13.5396 15.0246 12.6643C13.4451 11.7759 11.3136 11.25 9.00001 11.25ZM1.75001 16.5C1.75001 15.6487 2.37139 14.7252 3.71085 13.9717C5.02681 13.2315 6.89529 12.75 9.00001 12.75C11.1047 12.75 12.9732 13.2315 14.2892 13.9717C15.6286 14.7252 16.25 15.6487 16.25 16.5C16.25 17.8078 16.2097 18.544 15.5264 19.1004C15.1559 19.4022 14.5365 19.6967 13.4762 19.9113C12.4193 20.1252 10.9742 20.25 9.00001 20.25C7.02579 20.25 5.58075 20.1252 4.5238 19.9113C3.46354 19.6967 2.84413 19.4022 2.4736 19.1004C1.79033 18.544 1.75001 17.8078 1.75001 16.5Z" fill="#9747FF"/>
<path d="M16.3859 2.35689C16.0307 2.14378 15.57 2.25895 15.3569 2.61413L15.6051 3.63763L15.6129 3.64295C15.6246 3.65115 15.6468 3.66736 15.6761 3.6918C15.7353 3.74108 15.8198 3.82084 15.9055 3.93229C16.0727 4.14955 16.25 4.49266 16.25 5.00001C16.25 5.50735 16.0727 5.85046 15.9055 6.06772C15.8198 6.17917 15.7353 6.25893 15.6761 6.30822C15.6468 6.33265 15.6246 6.34887 15.6129 6.35707L15.6051 6.36238C15.257 6.57784 15.1456 7.03372 15.3569 7.38588C15.57 7.74106 16.0307 7.85624 16.3859 7.64313L16 7.00001C16.3859 7.64313 16.3856 7.64333 16.3859 7.64313L16.3872 7.64232L16.3887 7.64145L16.3918 7.63953L16.3993 7.63493L16.4185 7.62272C16.4332 7.61322 16.4516 7.60098 16.4731 7.58591C16.516 7.55584 16.572 7.51424 16.6364 7.46055C16.7648 7.35358 16.9302 7.19584 17.0945 6.98229C17.4274 6.54955 17.75 5.89266 17.75 5.00001C17.75 4.10735 17.4274 3.45046 17.0945 3.01772C16.9302 2.80417 16.7648 2.64643 16.6364 2.53947C16.572 2.48577 16.516 2.44418 16.4731 2.4141C16.4516 2.39904 16.4332 2.38679 16.4185 2.3773L16.3993 2.36508L16.3918 2.36049L16.3887 2.35856L16.3872 2.35769C16.3869 2.35749 16.3859 2.35689 16 3.00001L16.3859 2.35689Z" fill="#9747FF"/>
</svg>
